# xmcd
#
# Track frame offsets:
#	183
#	20408
#	35508
#	54133
#	82083
#	97683
#	116508
#	129708
#	145758
#	161433
#	178483
#	197583
#	216858
#	235233
#
# Disc length: 3402 seconds
#
# Revision: 2
# Processed by: cddbd v1.5.1PL0 Copyright (c) Steve Scherf et al.
# Submitted via: audiograbber 1.83.01
#
DISCID=ba0d480e
DTITLE=Various Artist - Herzklopfen Folge 1
DYEAR=1900
DGENRE=schlager
TTITLE0=Bernd Kaczmarek - Leben wie im Traum
TTITLE1=Ulli Martin - Steig in das Traumboot der Liebe
TTITLE2=Valeries Garten - Sanfte Gefühle
TTITLE3=Andy Borg - Ich will deine Tränen weinen
TTITLE4=Susan Schubert - Shalalaika
TTITLE5=Stefan Waggershausen - Bitte laß es Liebe sein
TTITLE6=Stephan Remmler - Unter einer kleinen Decke in der Nacht
TTITLE7=Petra Laser - Das muss Liebe sein
TTITLE8=Matthias Reim - Du fehlst mir
TTITLE9=Jürgen Marcus - Komm mit auf die Sonnenseite des Lebens
TTITLE10=Bernhard Brink - Doch dich vergeß ich nicht
TTITLE11=Peter Orloff - Das Tor zum Garten der Träume
TTITLE12=Wolfgang Petry - Liebe-die du nie begreifst
TTITLE13=Roy Black - Ich kann dich nur lieben
EXTD=
EXTT0=
EXTT1=
EXTT2=
EXTT3=
EXTT4=
EXTT5=
EXTT6=
EXTT7=
EXTT8=
EXTT9=
EXTT10=
EXTT11=
EXTT12=
EXTT13=
PLAYORDER=
